<mxfile host="app.diagrams.net" agent="Mozilla/5.0 (Windows NT 10.0; Win64; x64) AppleWebKit/537.36 (KHTML, like Gecko) Chrome/133.0.0.0 Safari/537.36" version="26.0.11">
  <diagram name="Page-1" id="X-QpescNkOcq-0WOh6L8">
    <mxGraphModel dx="1434" dy="772" grid="1" gridSize="10" guides="1" tooltips="1" connect="1" arrows="1" fold="1" page="1" pageScale="1" pageWidth="827" pageHeight="1169" math="0" shadow="0">
      <root>
        <mxCell id="0" />
        <mxCell id="1" parent="0" />
        <mxCell id="aCoKbiQYJU9517bbd4Uq-5" value="" style="shape=folder;fontStyle=1;spacingTop=10;tabWidth=40;tabHeight=14;tabPosition=left;html=1;whiteSpace=wrap;" vertex="1" parent="1">
          <mxGeometry x="270" y="390" width="720" height="490" as="geometry" />
        </mxCell>
        <mxCell id="aCoKbiQYJU9517bbd4Uq-6" value="" style="shape=folder;fontStyle=1;spacingTop=10;tabWidth=40;tabHeight=14;tabPosition=left;html=1;whiteSpace=wrap;" vertex="1" parent="1">
          <mxGeometry x="320" y="440" width="280" height="170" as="geometry" />
        </mxCell>
        <mxCell id="aCoKbiQYJU9517bbd4Uq-7" value="access_level" style="shape=module;align=left;spacingLeft=20;align=center;verticalAlign=top;whiteSpace=wrap;html=1;" vertex="1" parent="1">
          <mxGeometry x="340" y="487.5" width="100" height="50" as="geometry" />
        </mxCell>
        <mxCell id="aCoKbiQYJU9517bbd4Uq-8" value="auth" style="shape=module;align=left;spacingLeft=20;align=center;verticalAlign=top;whiteSpace=wrap;html=1;" vertex="1" parent="1">
          <mxGeometry x="460" y="487.5" width="100" height="50" as="geometry" />
        </mxCell>
        <mxCell id="aCoKbiQYJU9517bbd4Uq-10" value="Users" style="text;align=center;fontStyle=1;verticalAlign=middle;spacingLeft=3;spacingRight=3;strokeColor=none;rotatable=0;points=[[0,0.5],[1,0.5]];portConstraint=eastwest;html=1;" vertex="1" parent="1">
          <mxGeometry x="320" y="440" width="40" height="16" as="geometry" />
        </mxCell>
        <mxCell id="aCoKbiQYJU9517bbd4Uq-11" value="&lt;font&gt;Hospital&amp;nbsp;&lt;/font&gt;&lt;span style=&quot;background-color: transparent; color: light-dark(rgb(0, 0, 0), rgb(255, 255, 255));&quot;&gt;Management&amp;nbsp;&lt;/span&gt;&lt;span style=&quot;background-color: transparent; color: light-dark(rgb(0, 0, 0), rgb(255, 255, 255));&quot;&gt;System&lt;/span&gt;" style="text;align=center;fontStyle=1;verticalAlign=middle;spacingLeft=3;spacingRight=3;strokeColor=none;rotatable=0;points=[[0,0.5],[1,0.5]];portConstraint=eastwest;html=1;" vertex="1" parent="1">
          <mxGeometry x="340" y="409" width="50" height="16" as="geometry" />
        </mxCell>
        <mxCell id="aCoKbiQYJU9517bbd4Uq-13" value="" style="shape=folder;fontStyle=1;spacingTop=10;tabWidth=40;tabHeight=14;tabPosition=left;html=1;whiteSpace=wrap;" vertex="1" parent="1">
          <mxGeometry x="680" y="440" width="280" height="220" as="geometry" />
        </mxCell>
        <mxCell id="aCoKbiQYJU9517bbd4Uq-14" value="commands" style="shape=module;align=left;spacingLeft=20;align=center;verticalAlign=top;whiteSpace=wrap;html=1;" vertex="1" parent="1">
          <mxGeometry x="700" y="487.5" width="100" height="50" as="geometry" />
        </mxCell>
        <mxCell id="aCoKbiQYJU9517bbd4Uq-15" value="display_data" style="shape=module;align=left;spacingLeft=20;align=center;verticalAlign=top;whiteSpace=wrap;html=1;" vertex="1" parent="1">
          <mxGeometry x="820" y="487.5" width="100" height="50" as="geometry" />
        </mxCell>
        <mxCell id="aCoKbiQYJU9517bbd4Uq-16" value="&lt;font style=&quot;font-size: 11px;&quot;&gt;Scripts&lt;/font&gt;" style="text;align=center;fontStyle=1;verticalAlign=middle;spacingLeft=3;spacingRight=3;strokeColor=none;rotatable=0;points=[[0,0.5],[1,0.5]];portConstraint=eastwest;html=1;" vertex="1" parent="1">
          <mxGeometry x="680" y="440" width="40" height="16" as="geometry" />
        </mxCell>
        <mxCell id="aCoKbiQYJU9517bbd4Uq-17" value="" style="shape=folder;fontStyle=1;spacingTop=10;tabWidth=40;tabHeight=14;tabPosition=left;html=1;whiteSpace=wrap;" vertex="1" parent="1">
          <mxGeometry x="339" y="665" width="150" height="145" as="geometry" />
        </mxCell>
        <mxCell id="aCoKbiQYJU9517bbd4Uq-18" value="SQL_Connect" style="shape=module;align=left;spacingLeft=20;align=center;verticalAlign=top;whiteSpace=wrap;html=1;" vertex="1" parent="1">
          <mxGeometry x="359" y="712.5" width="100" height="50" as="geometry" />
        </mxCell>
        <mxCell id="aCoKbiQYJU9517bbd4Uq-20" value="&lt;font style=&quot;font-size: 7px;&quot;&gt;Connector&lt;/font&gt;" style="text;align=center;fontStyle=1;verticalAlign=middle;spacingLeft=3;spacingRight=3;strokeColor=none;rotatable=0;points=[[0,0.5],[1,0.5]];portConstraint=eastwest;html=1;" vertex="1" parent="1">
          <mxGeometry x="339" y="665" width="40" height="16" as="geometry" />
        </mxCell>
        <mxCell id="aCoKbiQYJU9517bbd4Uq-21" value="utility" style="shape=module;align=left;spacingLeft=20;align=center;verticalAlign=top;whiteSpace=wrap;html=1;" vertex="1" parent="1">
          <mxGeometry x="750" y="570" width="100" height="50" as="geometry" />
        </mxCell>
        <mxCell id="aCoKbiQYJU9517bbd4Uq-22" value="logins" style="html=1;dropTarget=0;whiteSpace=wrap;" vertex="1" parent="1">
          <mxGeometry x="410" y="550" width="140" height="50" as="geometry" />
        </mxCell>
        <mxCell id="aCoKbiQYJU9517bbd4Uq-23" value="" style="shape=module;jettyWidth=8;jettyHeight=4;" vertex="1" parent="aCoKbiQYJU9517bbd4Uq-22">
          <mxGeometry x="1" width="20" height="20" relative="1" as="geometry">
            <mxPoint x="-27" y="7" as="offset" />
          </mxGeometry>
        </mxCell>
        <mxCell id="aCoKbiQYJU9517bbd4Uq-24" value="Main" style="shape=module;align=left;spacingLeft=20;align=center;verticalAlign=top;whiteSpace=wrap;html=1;" vertex="1" parent="1">
          <mxGeometry x="770" y="760" width="100" height="50" as="geometry" />
        </mxCell>
        <mxCell id="aCoKbiQYJU9517bbd4Uq-26" value="Establishes Database Connection" style="endArrow=open;endSize=12;dashed=1;html=1;rounded=0;exitX=0;exitY=0;exitDx=10;exitDy=0;exitPerimeter=0;entryX=0;entryY=0;entryDx=150;entryDy=79.5;entryPerimeter=0;" edge="1" parent="1" source="aCoKbiQYJU9517bbd4Uq-24" target="aCoKbiQYJU9517bbd4Uq-17">
          <mxGeometry width="160" relative="1" as="geometry">
            <mxPoint x="670" y="660" as="sourcePoint" />
            <mxPoint x="830" y="660" as="targetPoint" />
          </mxGeometry>
        </mxCell>
        <mxCell id="aCoKbiQYJU9517bbd4Uq-28" value="Controls Login and&lt;div&gt;&amp;nbsp;Logout for users&lt;/div&gt;" style="endArrow=open;endSize=12;dashed=1;html=1;rounded=0;exitX=0;exitY=0;exitDx=10;exitDy=0;exitPerimeter=0;entryX=0.5;entryY=1;entryDx=0;entryDy=0;entryPerimeter=0;" edge="1" parent="1" source="aCoKbiQYJU9517bbd4Uq-24" target="aCoKbiQYJU9517bbd4Uq-6">
          <mxGeometry width="160" relative="1" as="geometry">
            <mxPoint x="790" y="770" as="sourcePoint" />
            <mxPoint x="499" y="755" as="targetPoint" />
          </mxGeometry>
        </mxCell>
        <mxCell id="aCoKbiQYJU9517bbd4Uq-29" value="Provides utility functions" style="endArrow=open;endSize=12;dashed=1;html=1;rounded=0;exitX=0;exitY=0;exitDx=10;exitDy=0;exitPerimeter=0;entryX=0.5;entryY=1;entryDx=0;entryDy=0;entryPerimeter=0;" edge="1" parent="1" source="aCoKbiQYJU9517bbd4Uq-24" target="aCoKbiQYJU9517bbd4Uq-13">
          <mxGeometry width="160" relative="1" as="geometry">
            <mxPoint x="790" y="770" as="sourcePoint" />
            <mxPoint x="470" y="620" as="targetPoint" />
          </mxGeometry>
        </mxCell>
      </root>
    </mxGraphModel>
  </diagram>
</mxfile>
